<svg width="217" height="60" viewBox="0 0 217 60" fill="none" xmlns="http://www.w3.org/2000/svg">
<path d="M58.2623 2.52838H13.8553C8.20082 2.52838 3.6167 7.13747 3.6167 12.8216V57.4716L31.8414 29.0943L58.2623 2.52838Z" fill="#1D1D1F"/>
<path d="M3.81348 57.4716H47.9029C53.5166 57.4716 58.0669 52.8966 58.0669 47.2523V2.92273L3.81348 57.4716Z" fill="#C0E278"/>
<path d="M77.7867 47.4864L81.4146 37.4443H74.5079L65.4629 12.4636H72.8183L79.4266 30.75H83.8005L90.4088 12.4636H97.7134L85.1432 47.4864H77.7867Z" fill="#C0E278"/>
<path d="M121.764 40.2238C126.289 38.0431 128.821 34.2193 128.935 29.9522L135.567 26.7568C137.013 34.7602 132.708 42.3738 124.643 46.2613C114.829 50.9909 104.084 47.5261 99.6165 38.1545C95.0844 28.6488 99.1045 18.1227 108.963 13.3727C117.028 9.48631 125.584 10.9034 130.927 17.0272L124.296 20.2227C120.939 17.5738 116.41 17.2079 111.84 19.4102C105.433 22.4977 102.926 28.9147 105.889 35.1318C108.79 41.2136 115.401 43.2897 121.764 40.2238Z" fill="#C0E278"/>
<path d="M151.765 12.5125H159.516L177.058 47.4863H169.306L165.181 39.2431H146.149L142.024 47.4863H134.322L151.765 12.5125ZM161.952 32.8477L155.642 20.2579L149.332 32.8477H161.952Z" fill="#C0E278"/>
<path d="M213.383 12.5136V47.4863H206.426V18.9591H186.351V47.4863H179.394V12.5136H213.383Z" fill="#C0E278"/>
<path d="M122.374 8.85907H110.848V14.4636H122.374V8.85907Z" fill="#C0E278"/>
<path d="M114.627 36.3114C114.627 35.2614 113.781 34.4102 112.737 34.4102C111.693 34.4102 110.848 35.2614 110.848 36.3114C110.848 37.3602 111.693 38.2114 112.737 38.2114C113.781 38.2102 114.627 37.3602 114.627 36.3114Z" fill="#C0E278"/>
<path d="M123.035 33.0193C123.035 32.3955 122.531 31.8898 121.912 31.8898C121.292 31.8898 120.789 32.3966 120.789 33.0193C120.789 33.6432 121.293 34.1489 121.912 34.1489C122.531 34.1489 123.035 33.6432 123.035 33.0193Z" fill="#C0E278"/>
<path d="M122.475 40.2977C122.475 38.7227 121.205 37.4465 119.638 37.4465C118.073 37.4465 116.804 38.7227 116.804 40.2977C116.804 41.8727 118.073 43.1499 119.638 43.1499C121.205 43.1499 122.475 41.8727 122.475 40.2977Z" fill="#C0E278"/>
<path d="M118.354 35.009C118.354 34.6329 118.051 34.3284 117.678 34.3284C117.305 34.3284 117.001 34.6329 117.001 35.009C117.001 35.384 117.305 35.6886 117.678 35.6886C118.051 35.6886 118.354 35.384 118.354 35.009Z" fill="#C0E278"/>
<path d="M125.921 35.0909C125.921 34.7159 125.618 34.4102 125.244 34.4102C124.871 34.4102 124.568 34.7159 124.568 35.0909C124.568 35.467 124.871 35.7716 125.244 35.7716C125.618 35.7716 125.921 35.467 125.921 35.0909Z" fill="#C0E278"/>
</svg>